<svg xmlns="http://www.w3.org/2000/svg" viewBox="0 0 40.73 36.05"><title>Asset 1</title><g id="Layer_2" data-name="Layer 2"><g id="Layer_2-2" data-name="Layer 2"><g id="Swirl"><path d="M21.4,15.5A3.13,3.13,0,0,0,23.89,17c1.53-.09,5.06-.62,5.17-6.77S22.67-.22,15.52,0C15.52,0,3,.65.21,14.92c0,0-.47,3.25,0,3.85,0,0,3-10.58,5.92-9.28,1,.44-3.38,9.7,3.45,18.32,0,0,2.73,3.84,4.61,4.9a45.41,45.41,0,0,0,5,2.38c.88.34,6.49,1.28,8.75.85a20.23,20.23,0,0,0,5.32-1.74c.21-.26-.51,0-.51,0s-16.77,3.53-22.3-7.75C5.09,15.58,13.12,9.9,13.12,9.9s-5.55,6.7-1,13.6,9.32,6.83,11.11,7,4.72-.13,6-.83a1.87,1.87,0,0,1,.61-.28c.34-.09.22-.17.21-.32s-.92-.19-.9-.57c0,0,.54-.59.78-.65l.39-.11c.13,0,2.89-1.93,3.61-2.44a29.07,29.07,0,0,0,4.47-5.19c.55-1.15,2.37-3.07,2.37-9.8,0,0-.19,9.39-7.56,13.67,0,0-5.28,2.78-7.61.76,0,0-.56-.52.07-1.37s3.32-2.68,3.43-2.92,0-.23,0-.34,1.11-.85.55-1.17-5.57,2.45-7.89.11S21.4,15.5,21.4,15.5Z"/></g></g></g></svg>